<?xml version="1.0" standalone="no"?>
<!DOCTYPE svg PUBLIC "-//W3C//DTD SVG 20010904//EN"
 "http://www.w3.org/TR/2001/REC-SVG-20010904/DTD/svg10.dtd">
<svg version="1.0" xmlns="http://www.w3.org/2000/svg"
 width="2000.000000pt" height="1500.000000pt" viewBox="0 0 2000.000000 1500.000000"
 preserveAspectRatio="xMidYMid meet">

<g transform="translate(0.000000,1500.000000) scale(0.100000,-0.100000)"
fill="#000000" stroke="none">
<path d="M6346 11868 c-14 -20 -16 -388 -16 -3705 0 -3337 1 -3683 16 -3697
14 -15 359 -16 3710 -14 3271 3 3696 5 3704 18 6 9 10 1396 10 3702 0 3338 -1
3688 -16 3702 -14 15 -364 16 -3704 16 l-3689 0 -15 -22z m7354 -3693 l0
-3655 -3650 0 -3650 0 0 3655 0 3655 3650 0 3650 0 0 -3655z"/>
<path d="M6537 11693 c-4 -3 -7 -1582 -7 -3507 0 -2803 3 -3506 13 -3526 l13
-25 3497 0 c3098 0 3499 2 3507 15 6 9 9 1311 7 3503 l-2 3489 -33 29 -32 29
-3478 0 c-1913 0 -3482 -3 -3485 -7z m6956 -62 c16 -12 17 -267 17 -3472 l0
-3459 -3460 0 -3460 0 2 3462 3 3462 25 13 c39 20 6850 14 6873 -6z"/>
<path d="M6793 11493 c-12 -2 -27 -11 -35 -20 -11 -13 -13 -593 -16 -3290 -1
-2263 1 -3280 8 -3293 11 -20 31 -20 1338 -20 1067 1 1334 3 1364 14 20 7 130
67 245 134 114 66 227 125 249 131 23 6 83 9 134 7 l92 -4 186 -108 c103 -59
212 -121 242 -138 l55 -31 1342 -3 c1324 -2 1342 -2 1353 17 7 14 9 1025 8
3295 -3 3129 -4 3276 -21 3293 -17 17 -83 18 -1310 18 l-1292 0 -115 -64 c-63
-36 -176 -102 -251 -147 -174 -104 -227 -124 -327 -124 -95 0 -90 -2 -405 179
-177 101 -262 144 -299 151 -49 10 -2497 12 -2545 3z m2646 -115 c53 -28 172
-96 265 -151 93 -54 187 -106 210 -114 26 -10 76 -16 136 -16 112 0 153 14
283 92 47 28 157 93 244 144 l158 92 1278 3 1277 2 0 -3250 0 -3250 -1307 2
-1308 3 -164 95 c-282 164 -291 168 -365 181 -87 14 -195 7 -261 -18 -27 -11
-111 -55 -185 -100 -74 -44 -170 -99 -213 -122 l-79 -41 -1299 0 -1299 0 0
3250 0 3250 1267 0 1266 0 96 -52z"/>
<path d="M6906 11354 c-15 -14 -16 -314 -16 -3154 0 -3074 0 -3138 19 -3161
l19 -24 1204 -3 c661 -1 1217 0 1234 3 31 5 390 206 452 252 38 28 40 42 10
70 -41 36 -375 223 -399 223 -12 0 -68 -18 -123 -39 -181 -71 -422 -106 -731
-106 -241 0 -243 1 -425 85 -141 65 -196 83 -343 109 -120 22 -190 51 -272
114 -208 158 -265 446 -121 613 l34 39 17 -40 c44 -103 55 -142 94 -310 47
-200 66 -249 97 -253 16 -2 24 5 33 30 26 71 48 105 110 171 51 54 83 77 157
114 52 26 97 44 100 40 11 -11 -17 -130 -44 -187 -18 -36 -55 -83 -109 -136
-46 -45 -83 -86 -83 -91 0 -6 8 -17 18 -25 23 -21 259 -118 287 -118 28 0 56
31 94 107 17 34 45 78 61 97 40 45 123 86 173 86 l40 0 -7 -52 c-13 -97 -44
-145 -138 -215 -50 -36 -62 -67 -29 -78 10 -3 47 8 85 24 89 40 161 61 210 61
67 0 71 -12 21 -53 -50 -42 -56 -61 -25 -77 27 -15 281 6 330 26 148 62 192
284 101 509 -27 67 -32 90 -29 141 4 68 37 125 85 147 24 10 29 8 59 -27 89
-103 95 -280 13 -457 -30 -67 -39 -98 -39 -141 0 -110 61 -138 158 -73 61 42
100 52 133 35 13 -7 155 -88 315 -181 160 -93 301 -169 314 -169 27 0 44 9
385 208 284 166 293 169 369 114 62 -45 109 -52 141 -22 22 20 25 32 25 88 0
55 -6 79 -39 151 -63 137 -74 289 -27 378 8 16 30 46 50 68 l35 40 49 -50 c77
-79 77 -103 1 -310 -28 -78 -31 -215 -6 -298 20 -65 74 -133 124 -153 45 -19
307 -38 333 -24 30 16 25 34 -25 78 -50 44 -46 52 23 52 57 -1 120 -18 204
-56 63 -28 81 -33 98 -24 28 15 17 31 -61 94 -71 58 -104 113 -114 194 l-7 52
39 0 c88 -1 177 -68 230 -174 42 -84 69 -116 98 -116 22 0 270 104 292 122 20
16 15 44 -9 61 -52 34 -138 127 -161 173 -25 49 -62 192 -53 202 16 16 177
-76 259 -148 45 -40 107 -145 107 -180 0 -10 7 -23 15 -30 13 -10 19 -10 34 4
27 25 35 49 86 259 24 103 59 221 76 263 l31 75 25 -23 c40 -37 85 -135 90
-200 13 -133 -42 -273 -147 -379 -85 -86 -176 -131 -325 -160 -152 -29 -220
-52 -365 -119 -170 -79 -197 -83 -492 -70 -352 15 -558 49 -690 116 -26 13
-58 24 -71 24 -26 0 -379 -198 -412 -230 -15 -16 -17 -24 -9 -38 11 -17 310
-198 419 -252 l60 -30 1222 2 c987 2 1225 6 1235 16 18 18 25 6307 7 6329 -10
11 -210 13 -1238 11 l-1226 -3 -240 -139 c-132 -76 -251 -149 -265 -163 -42
-40 -44 -38 304 -239 l190 -109 75 2 76 2 -40 -20 c-31 -15 -54 -19 -102 -16
-57 4 -74 12 -220 99 -304 182 -427 248 -462 248 -36 0 -150 -61 -456 -244
l-170 -101 -70 0 c-45 0 -81 6 -99 16 -28 16 -28 16 45 15 57 -1 83 4 114 20
61 32 459 264 469 274 20 19 -5 56 -61 90 -167 99 -432 248 -462 258 -25 9
-336 12 -1237 12 -1080 0 -1204 -2 -1218 -16z m2655 -178 c123 -70 228 -131
232 -135 4 -4 -66 -50 -155 -101 -90 -51 -188 -108 -218 -126 -67 -41 -120
-50 -180 -31 -25 7 -121 62 -215 121 -204 128 -254 147 -415 153 -210 9 -374
-49 -502 -178 -59 -58 -68 -72 -68 -103 0 -127 243 -163 521 -76 l60 18 -17
-26 c-50 -76 -85 -144 -104 -202 -41 -123 -11 -312 54 -341 36 -17 82 15 150
104 67 88 121 200 137 287 7 36 16 69 20 74 4 4 36 -15 71 -43 34 -28 87 -64
117 -78 47 -23 66 -27 147 -26 74 0 98 4 113 17 26 24 17 48 -41 112 -28 30
-48 54 -45 54 2 0 24 -7 47 -15 89 -31 168 -17 280 52 146 89 489 283 501 283
7 0 130 -68 273 -151 144 -83 279 -162 301 -174 22 -13 56 -26 75 -29 32 -6
112 9 165 29 12 5 1 -12 -27 -41 -27 -27 -50 -63 -54 -80 -5 -25 -2 -32 20
-42 48 -22 119 -25 186 -8 75 19 126 48 193 106 26 23 49 41 51 39 1 -2 17
-49 34 -104 51 -163 178 -352 249 -370 54 -13 90 59 100 196 8 110 -33 235
-108 330 -16 20 -29 39 -29 42 0 3 35 -5 77 -18 177 -55 330 -58 429 -10 64
32 89 63 80 102 -4 14 -37 56 -74 93 -117 115 -286 182 -462 183 -164 1 -272
-39 -490 -182 -131 -85 -209 -117 -265 -108 -26 4 -435 229 -468 257 -7 6 299
189 418 250 l50 25 1182 3 1183 2 0 -3120 0 -3120 -1196 0 -1196 0 -187 107
c-102 58 -194 112 -204 119 -16 10 1 23 152 109 l170 97 87 -37 c150 -64 390
-101 729 -112 241 -7 303 3 454 77 119 58 218 91 366 119 194 38 327 120 418
259 80 123 92 160 92 302 0 139 -7 161 -86 268 -45 59 -78 68 -119 30 -41 -38
-92 -167 -135 -342 l-41 -169 -36 49 c-73 98 -173 177 -279 220 -129 53 -162
26 -136 -109 22 -111 65 -196 139 -274 35 -36 59 -68 53 -70 -5 -2 -53 -21
-105 -42 -52 -21 -98 -37 -103 -34 -4 2 -23 36 -43 74 -45 90 -90 138 -165
179 -72 38 -162 51 -194 27 -24 -19 -25 -92 -1 -185 9 -33 16 -64 16 -68 0 -5
-45 -9 -101 -9 -94 0 -102 -2 -120 -23 -17 -22 -17 -27 -4 -59 l15 -35 -100 4
c-97 3 -100 4 -134 37 -52 51 -69 112 -64 229 4 82 9 109 37 172 64 147 49
256 -47 340 -66 58 -101 56 -164 -11 -68 -73 -88 -133 -88 -267 0 -119 15
-188 55 -259 15 -27 29 -71 32 -100 7 -66 -4 -68 -88 -17 -69 43 -114 47 -176
16 -23 -12 -135 -76 -250 -144 -330 -193 -329 -192 -396 -164 -18 7 -107 58
-199 112 -354 210 -368 217 -413 217 -30 0 -61 -10 -109 -37 -37 -21 -70 -35
-74 -31 -17 17 -4 88 30 161 65 139 71 276 17 420 -27 71 -94 144 -133 144
-80 0 -162 -97 -173 -204 -5 -52 0 -71 52 -214 45 -127 30 -295 -32 -354 -45
-41 -67 -48 -158 -48 -83 0 -85 1 -75 20 18 33 8 73 -20 87 -14 7 -62 13 -109
13 l-84 0 7 48 c3 26 9 80 12 119 9 97 1 107 -82 100 -123 -12 -224 -87 -283
-211 -18 -37 -39 -70 -47 -73 -8 -3 -40 6 -72 20 -31 14 -76 31 -99 38 -24 7
-43 14 -43 17 0 3 31 37 68 76 78 83 112 153 133 279 17 99 10 112 -57 111
-94 -1 -244 -95 -342 -215 l-57 -70 -18 83 c-45 207 -113 393 -158 434 -28 26
-81 11 -114 -31 -73 -97 -108 -242 -87 -365 20 -117 60 -191 154 -285 108
-107 201 -155 373 -191 154 -32 169 -37 296 -95 198 -91 328 -113 579 -98 284
16 489 52 648 114 107 41 75 50 295 -78 l139 -80 -29 -17 c-132 -80 -255 -151
-292 -169 -99 -51 -92 -51 -1328 -51 l-1153 0 0 3120 0 3120 1188 -2 1189 -3
224 -129z m-846 -190 c33 -8 83 -24 110 -36 58 -25 348 -201 341 -207 -2 -3
-41 3 -86 12 -79 16 -130 14 -130 -4 0 -17 61 -61 182 -133 78 -46 116 -74
110 -80 -19 -19 -126 -11 -173 12 -71 36 -137 89 -169 135 -34 50 -67 66 -85
41 -7 -9 -15 -49 -18 -90 -11 -124 -83 -287 -173 -390 -40 -46 -56 -40 -73 29
-34 135 16 282 147 432 73 83 82 106 50 126 -13 8 -38 0 -115 -35 -120 -56
-226 -81 -358 -82 -88 -1 -104 2 -138 22 l-37 24 17 30 c46 79 187 164 318
192 90 19 204 19 280 2z m2948 -2 c113 -25 207 -74 277 -142 104 -101 76 -125
-135 -119 l-140 3 -148 59 c-115 45 -153 56 -165 48 -32 -19 -24 -43 38 -112
111 -123 155 -208 167 -322 6 -62 -12 -175 -30 -186 -16 -10 -93 80 -138 161
-48 87 -75 170 -84 261 -9 96 -13 105 -40 105 -18 0 -35 -15 -66 -56 -74 -100
-170 -153 -283 -153 -88 -1 -84 3 90 109 74 45 139 90 144 101 17 31 -30 35
-138 10 -52 -11 -96 -20 -98 -19 -4 5 331 206 371 223 110 46 254 57 378 29z"/>
<path d="M7632 11200 c-157 -41 -298 -141 -386 -274 -122 -184 -192 -517 -166
-788 35 -362 163 -574 426 -706 155 -78 336 -82 474 -12 57 29 76 61 60 101
-18 41 -110 121 -189 163 -75 39 -197 76 -252 76 -71 0 -73 7 -20 67 124 139
179 342 127 468 -21 49 -44 51 -123 12 -179 -91 -265 -194 -282 -340 l-7 -62
-23 60 c-41 107 -61 261 -45 356 l6 36 82 -20 c60 -14 106 -18 181 -15 87 3
109 8 167 35 82 38 160 107 156 137 -8 54 -172 82 -301 52 -89 -21 -91 -20
-32 8 82 38 118 91 84 122 -28 26 -132 31 -183 10 -52 -22 -56 -21 -56 14 0
44 32 100 81 145 l42 38 28 -55 c36 -70 114 -141 181 -164 96 -32 245 -1 282
58 22 36 -70 169 -152 220 -19 12 -71 34 -115 49 l-80 26 59 24 c82 32 196 32
279 0 97 -37 101 -37 124 0 31 50 27 83 -11 113 -87 65 -266 85 -416 46z m304
-63 c45 -16 70 -30 72 -41 3 -16 1 -16 -35 0 -57 25 -256 32 -319 10 -64 -22
-142 -73 -150 -99 -8 -27 27 -57 67 -57 98 0 218 -62 277 -144 18 -24 32 -48
32 -54 0 -27 -115 -49 -175 -33 -77 20 -125 60 -170 141 -40 73 -42 75 -79 74
-68 -2 -148 -88 -182 -193 -20 -65 -12 -100 30 -120 25 -12 36 -11 85 4 31 9
70 15 86 13 l30 -3 -43 -23 c-45 -24 -101 -30 -171 -18 -48 9 -61 0 -61 -45 0
-30 22 -52 73 -74 49 -20 106 -19 197 5 98 26 230 26 230 0 0 -14 -79 -60
-142 -81 -95 -32 -210 -24 -300 21 -56 28 -69 32 -82 21 -36 -30 -55 -204 -36
-332 23 -162 93 -322 146 -335 42 -11 49 7 49 124 0 91 4 115 24 160 29 65
108 139 193 181 56 28 63 30 71 15 15 -27 1 -164 -24 -229 -40 -109 -117 -204
-219 -271 -71 -47 -42 -86 50 -65 104 24 241 3 359 -55 78 -39 182 -128 165
-143 -17 -16 -138 -52 -194 -57 -83 -9 -164 10 -269 63 -274 137 -394 403
-378 837 10 282 97 515 247 664 141 139 370 198 546 139z m-509 -613 c-3 -3
-12 -4 -19 -1 -8 3 -5 6 6 6 11 1 17 -2 13 -5z"/>
<path d="M12190 11210 c-50 -13 -132 -49 -152 -67 -10 -9 -18 -28 -18 -42 0
-33 35 -91 55 -91 9 0 44 12 78 27 84 37 216 39 292 4 l50 -23 -55 -17 c-125
-40 -217 -111 -267 -206 -33 -64 -29 -77 38 -115 62 -35 191 -36 260 -2 60 29
124 94 153 156 l23 48 42 -38 c49 -44 81 -100 81 -144 0 -35 -4 -36 -56 -14
-54 22 -157 16 -185 -12 l-20 -21 27 -32 c15 -18 50 -45 78 -61 60 -35 59 -35
-31 -14 -132 31 -283 4 -291 -53 -7 -47 110 -134 216 -163 64 -17 196 -13 284
8 l76 19 6 -21 c9 -33 7 -156 -4 -223 -13 -81 -49 -195 -59 -189 -5 3 -11 30
-14 59 -3 30 -16 76 -30 103 -45 89 -174 198 -282 239 -59 23 -80 10 -94 -55
-33 -154 8 -298 124 -435 30 -35 55 -67 55 -70 0 -3 -22 -5 -48 -5 -66 0 -187
-32 -260 -69 -78 -39 -179 -123 -199 -166 -15 -31 -15 -36 1 -59 33 -52 167
-98 280 -98 85 0 180 28 287 83 257 133 391 405 392 794 0 161 -16 283 -59
435 -70 247 -217 414 -441 503 -67 26 -93 31 -188 33 -60 2 -126 -1 -145 -6z
m240 -61 c89 -20 207 -86 283 -159 88 -83 130 -150 173 -278 55 -161 77 -318
71 -507 -11 -363 -125 -577 -378 -710 -130 -68 -258 -80 -385 -35 -93 32 -95
40 -28 95 143 116 326 168 474 134 49 -11 90 -5 90 13 0 6 -19 28 -42 47 -137
117 -202 207 -233 326 -20 78 -20 174 0 181 26 10 124 -44 178 -98 83 -83 102
-131 102 -258 0 -58 4 -111 8 -117 13 -20 52 -15 75 10 33 35 81 147 98 228
11 54 15 117 12 231 -3 147 -5 159 -25 179 l-22 22 -73 -33 c-98 -45 -202 -52
-296 -21 -63 21 -142 67 -142 81 0 26 125 26 232 0 107 -26 157 -25 212 2 52
25 67 51 53 91 -9 28 -11 28 -61 21 -75 -11 -123 -6 -170 19 l-41 22 42 3 c24
2 55 -4 72 -12 73 -38 139 1 127 76 -14 88 -79 185 -149 223 -52 28 -82 15
-113 -48 -63 -125 -178 -189 -289 -158 -69 19 -71 23 -41 75 50 86 179 156
287 156 58 0 77 18 60 57 -14 33 -60 66 -132 95 -75 30 -208 30 -299 0 -69
-23 -100 -16 -56 13 61 40 225 57 326 34z"/>
<path d="M9988 10807 c-83 -63 -138 -194 -124 -296 3 -25 23 -80 43 -121 21
-41 39 -78 41 -82 2 -3 -13 -3 -32 2 -60 13 -121 56 -157 109 -66 99 -193 130
-303 75 -116 -58 -210 -153 -276 -280 -36 -68 -30 -84 37 -111 35 -13 74 -18
143 -18 86 1 101 4 160 32 39 19 87 54 119 87 l54 55 59 -30 59 -30 -36 -41
c-38 -41 -74 -110 -75 -140 -1 -66 134 -63 223 5 19 14 47 51 63 81 27 53 31
56 66 56 34 0 39 -4 53 -37 21 -50 80 -111 130 -134 76 -35 165 -19 165 29 0
10 -22 55 -50 102 l-49 85 52 27 52 26 55 -52 c30 -29 71 -62 90 -74 92 -54
229 -67 325 -31 72 27 82 46 54 101 -62 123 -163 230 -273 287 -48 26 -70 31
-124 31 -89 0 -142 -26 -181 -89 -16 -27 -43 -58 -60 -70 -33 -24 -141 -64
-149 -56 -3 3 6 18 21 33 60 63 88 176 67 275 -20 97 -124 227 -182 227 -9 0
-36 -15 -60 -33z m111 -72 c57 -66 76 -112 76 -195 0 -83 -15 -122 -67 -177
-58 -60 -36 -113 46 -113 86 0 246 88 246 135 0 45 97 94 160 80 35 -8 149
-87 210 -147 25 -24 59 -67 77 -95 l31 -51 -31 -14 c-18 -7 -63 -13 -102 -13
-99 1 -175 37 -255 121 -33 35 -65 64 -70 64 -6 0 -41 -15 -78 -34 -37 -18
-84 -39 -104 -45 -52 -17 -50 -43 8 -95 54 -48 90 -104 77 -117 -12 -12 -74 6
-107 32 -15 12 -35 37 -45 57 -33 64 -74 95 -126 95 -53 0 -77 -18 -111 -85
-13 -25 -35 -55 -50 -67 -26 -20 -102 -47 -110 -38 -12 12 23 67 72 114 29 29
54 61 54 70 0 13 -29 31 -104 66 -57 26 -108 47 -115 47 -6 0 -38 -29 -71 -64
-67 -71 -146 -113 -229 -123 -51 -6 -151 13 -151 28 0 5 18 39 41 74 73 117
215 221 299 219 60 -1 106 -26 129 -72 26 -51 55 -76 126 -108 69 -32 165 -44
182 -23 27 35 24 56 -17 105 -73 88 -87 185 -42 287 24 55 79 117 102 117 10
0 32 -16 49 -35z"/>
<path d="M9302 9996 c-61 -20 -108 -60 -143 -121 l-30 -54 -57 34 c-72 43
-188 82 -286 96 -85 13 -504 -5 -521 -22 -13 -13 -22 -122 -30 -369 -6 -171
-5 -216 9 -273 19 -82 46 -135 91 -186 l35 -38 -41 -27 c-22 -15 -53 -48 -70
-73 -24 -40 -29 -57 -29 -112 0 -37 7 -91 15 -121 32 -115 94 -409 106 -495
22 -165 -2 -362 -67 -562 -40 -124 -55 -261 -34 -313 16 -40 83 -99 120 -107
17 -3 30 -7 30 -9 0 -3 -11 -22 -24 -42 -52 -83 -59 -121 -67 -377 -4 -132
-12 -258 -18 -280 -6 -22 -11 -58 -11 -81 0 -84 82 -113 222 -78 48 12 102 18
158 16 120 -3 274 15 325 37 24 11 69 38 100 62 46 35 58 40 66 28 5 -8 18
-28 29 -45 27 -43 115 -101 171 -113 66 -15 110 -5 243 56 66 30 142 58 169
64 27 5 161 9 296 9 l247 0 169 -66 c201 -79 237 -83 333 -39 65 29 128 89
138 132 4 13 9 23 11 23 3 0 24 -16 46 -36 22 -20 69 -50 105 -67 63 -30 71
-31 262 -38 155 -6 208 -12 256 -28 49 -16 67 -18 106 -10 85 19 98 54 78 215
-6 43 -14 169 -19 279 -9 212 -19 261 -68 338 -13 21 -23 40 -21 41 2 2 19 9
38 16 42 16 86 55 106 92 26 51 18 153 -26 304 -102 353 -103 533 -4 922 79
306 73 372 -37 452 l-38 27 29 47 c72 113 100 211 100 348 0 134 -22 462 -31
474 -5 6 -63 14 -137 18 -70 3 -172 9 -228 12 -155 10 -329 -29 -445 -99 l-56
-34 -44 66 c-57 85 -112 115 -208 114 -54 0 -102 -12 -261 -66 -348 -117 -475
-116 -827 3 -193 66 -264 78 -331 56z m308 -116 c199 -67 312 -90 445 -90 130
0 233 21 440 92 121 42 196 62 230 62 89 2 161 -54 185 -143 21 -78 26 -79
119 -21 108 67 188 97 301 111 89 12 103 11 408 -18 l63 -5 -3 -302 c-3 -339
-7 -355 -83 -426 -21 -19 -48 -45 -61 -57 -35 -33 -30 -51 18 -64 76 -20 116
-61 139 -143 10 -33 -2 -94 -56 -281 -57 -198 -69 -281 -69 -470 0 -196 12
-278 74 -490 45 -155 51 -204 31 -253 -15 -35 -72 -72 -113 -72 -79 -1 -90
-27 -39 -88 82 -99 93 -145 92 -381 -1 -169 3 -218 24 -348 11 -65 -11 -71
-166 -44 -75 13 -168 21 -234 21 -180 0 -238 21 -363 134 -80 71 -97 70 -98
-5 -1 -71 -26 -108 -96 -143 -80 -40 -127 -36 -263 23 -206 90 -213 92 -505
87 -282 -4 -319 -10 -460 -81 -131 -65 -188 -72 -270 -30 -63 32 -84 64 -90
139 -7 82 -22 83 -105 6 -39 -37 -94 -74 -133 -93 -66 -31 -71 -32 -257 -38
-137 -4 -203 -11 -235 -22 -55 -20 -100 -21 -124 -4 -17 12 -17 18 -6 68 7 30
15 163 19 304 6 241 7 252 32 305 14 30 42 75 62 98 57 67 50 81 -43 93 -45 7
-61 14 -87 43 -47 51 -46 115 6 279 65 203 76 269 76 467 0 191 -1 198 -81
529 -49 206 -54 260 -24 309 21 34 87 71 127 72 25 0 46 31 37 53 -3 9 -23 27
-44 41 -21 14 -50 40 -64 59 -67 88 -79 175 -64 483 l11 232 176 7 c256 11
370 -1 491 -54 52 -23 109 -55 126 -72 50 -48 68 -37 88 53 9 39 63 98 111
120 55 26 96 19 305 -52z"/>
<path d="M8595 9776 c-64 -29 -127 -101 -157 -175 -17 -43 -22 -77 -22 -151
-1 -126 26 -185 122 -268 108 -94 172 -158 172 -174 0 -29 -42 -69 -109 -102
-109 -55 -141 -107 -141 -223 1 -99 14 -142 86 -288 73 -148 94 -219 94 -320
0 -95 -20 -167 -87 -310 -56 -119 -72 -186 -59 -239 8 -33 64 -71 146 -97 87
-29 100 -41 100 -98 -1 -66 -28 -118 -112 -209 -84 -91 -122 -160 -139 -253
-38 -205 137 -346 352 -283 81 24 135 59 229 149 145 139 166 145 230 63 112
-147 130 -159 216 -159 44 0 72 9 157 49 129 63 195 81 324 89 162 10 300 -21
463 -102 83 -42 118 -49 170 -35 51 14 86 45 153 135 79 106 108 101 245 -38
87 -87 154 -130 237 -152 131 -34 221 -12 294 71 53 60 67 116 53 206 -15 97
-49 161 -141 261 -83 91 -111 146 -111 217 0 46 17 62 100 89 90 29 129 55
146 98 21 48 15 71 -55 227 -33 72 -67 159 -75 192 -35 138 -10 284 78 448 30
56 61 126 70 155 22 75 21 195 -3 246 -23 50 -46 71 -129 115 -36 19 -74 47
-85 61 -17 24 -18 30 -6 55 8 15 55 62 104 104 50 42 105 96 122 119 125 162
54 452 -129 531 -43 18 -65 22 -123 18 -96 -6 -151 -37 -280 -159 -122 -115
-160 -133 -221 -103 -21 11 -53 39 -72 64 -99 137 -130 160 -210 160 -44 0
-69 -9 -167 -60 -150 -78 -197 -90 -361 -90 -165 0 -250 20 -398 95 -89 45
-117 55 -160 55 -78 0 -109 -24 -208 -160 -19 -25 -51 -53 -72 -64 -59 -29
-97 -12 -208 90 -108 100 -162 139 -219 159 -63 23 -145 19 -204 -9z m218 -64
c25 -11 87 -61 144 -116 136 -130 202 -158 291 -121 47 20 75 46 122 115 87
126 122 134 266 62 170 -85 220 -97 429 -97 206 0 205 0 380 87 170 85 198 78
302 -74 60 -88 141 -122 230 -97 37 10 67 31 133 95 123 117 170 151 235 164
143 30 261 -73 280 -246 5 -44 3 -77 -9 -118 -18 -62 -60 -110 -198 -229 -130
-111 -115 -199 46 -285 85 -45 108 -74 114 -145 7 -82 -13 -150 -78 -278 -75
-148 -100 -236 -100 -354 0 -114 22 -197 95 -353 30 -65 55 -131 55 -145 0
-39 -30 -63 -111 -88 -131 -40 -168 -99 -134 -216 22 -75 46 -113 121 -194 70
-75 106 -139 123 -218 15 -69 1 -120 -45 -171 -45 -50 -88 -64 -168 -55 -97
10 -155 43 -255 144 -98 99 -149 131 -213 131 -55 0 -77 -15 -133 -95 -92
-128 -134 -141 -256 -80 -38 20 -111 50 -162 67 -89 31 -97 32 -262 33 -200 0
-244 -9 -399 -85 -155 -76 -188 -69 -287 61 -71 94 -110 117 -164 99 -51 -17
-165 -102 -213 -158 -75 -90 -231 -144 -325 -113 -46 16 -104 80 -113 126 -19
104 20 204 126 320 81 89 116 153 126 231 11 95 -30 141 -159 178 -67 19 -97
45 -97 83 0 15 27 84 59 153 78 165 95 238 89 377 -6 124 -29 199 -109 347
-74 140 -89 275 -37 341 11 14 50 41 87 59 87 45 122 82 128 138 6 57 -17 91
-131 187 -99 83 -138 137 -156 213 -32 132 43 292 156 334 48 18 118 12 177
-14z"/>
<path d="M9610 8859 c22 -27 44 -67 49 -87 12 -45 31 -494 31 -732 0 -256 -13
-389 -45 -457 -14 -31 -24 -58 -22 -60 2 -2 111 -2 242 -1 l238 3 -55 42 c-89
67 -90 72 -101 408 -11 335 -7 368 44 379 17 3 54 6 81 6 27 0 81 7 121 16
198 45 317 161 317 311 0 83 -25 133 -84 168 -81 47 -150 55 -519 55 l-337 0
40 -51z m674 -9 c77 -12 143 -45 161 -81 37 -70 8 -188 -61 -249 -74 -64 -211
-110 -332 -110 -79 0 -119 -15 -139 -54 -23 -41 -29 -289 -14 -522 9 -147 14
-175 35 -216 l25 -48 -131 0 c-120 0 -130 1 -123 18 26 66 30 148 29 547 -2
439 -12 634 -39 684 -8 17 -15 32 -15 36 0 9 542 5 604 -5z"/>
<path d="M10002 8820 c-61 -9 -90 -41 -103 -117 -13 -73 1 -186 27 -214 40
-45 154 -50 231 -10 44 22 99 79 114 118 14 38 11 105 -9 143 -31 62 -141 96
-260 80z m162 -60 c94 -36 88 -159 -12 -227 -63 -42 -171 -42 -194 0 -18 35
-15 180 5 211 16 24 22 26 97 26 43 0 90 -4 104 -10z"/>
<path d="M7870 9208 c-26 -43 -58 -128 -72 -191 -17 -79 -5 -261 21 -329 35
-92 143 -198 185 -182 18 7 53 95 72 184 44 206 -14 450 -127 530 -38 28 -56
25 -79 -12z m77 -80 c68 -74 99 -244 73 -394 -12 -65 -41 -154 -50 -154 -16 0
-62 61 -86 115 -49 107 -45 288 10 420 17 41 25 43 53 13z"/>
<path d="M12138 9210 c-44 -37 -102 -147 -118 -227 -17 -80 -8 -209 25 -343
28 -119 38 -140 61 -140 8 0 45 29 83 65 95 90 113 134 119 290 5 139 -9 211
-61 315 -38 77 -56 84 -109 40z m72 -104 c51 -119 53 -308 6 -412 -25 -54 -70
-114 -86 -114 -12 0 -50 144 -56 215 -8 83 9 201 37 264 20 46 55 91 71 91 5
0 17 -20 28 -44z"/>
<path d="M7494 9135 c-175 -87 -255 -251 -241 -492 6 -103 41 -215 121 -388
51 -112 55 -135 25 -184 l-20 -33 -55 52 c-57 54 -155 105 -223 116 -75 12
-86 -23 -52 -159 26 -98 52 -149 112 -213 l50 -52 -50 -78 c-46 -75 -51 -79
-81 -76 -18 1 -48 -2 -67 -9 -29 -9 -33 -15 -33 -45 0 -25 9 -44 36 -73 l35
-40 -30 -88 c-56 -164 -63 -361 -20 -578 24 -123 71 -224 134 -285 l45 -44 35
18 c39 21 55 59 37 85 -112 159 -174 392 -151 571 23 188 76 297 294 599 186
260 241 383 287 641 20 114 17 395 -6 500 -21 96 -85 249 -114 267 -15 11 -26
9 -68 -12z m84 -137 c42 -124 56 -225 56 -393 -1 -223 -44 -412 -137 -589 -32
-63 -319 -488 -357 -529 -4 -5 -26 8 -49 28 -23 21 -40 40 -37 42 2 3 21 0 42
-6 46 -13 64 0 100 69 12 25 41 72 63 105 23 33 41 65 41 71 0 5 -20 24 -44
42 -25 17 -61 53 -80 79 -51 71 -97 223 -66 223 35 0 129 -58 194 -119 51 -48
80 -69 91 -65 23 9 95 136 95 169 0 15 -34 101 -75 190 -91 196 -109 268 -102
410 8 160 45 234 157 317 36 26 68 48 71 48 3 0 20 -42 37 -92z m-501 -1660
c-3 -8 -6 -5 -6 6 -1 11 2 17 5 13 3 -3 4 -12 1 -19z m-10 -40 c-3 -8 -6 -5
-6 6 -1 11 2 17 5 13 3 -3 4 -12 1 -19z m-10 -40 c-3 -8 -6 -5 -6 6 -1 11 2
17 5 13 3 -3 4 -12 1 -19z m-10 -40 c-3 -8 -6 -5 -6 6 -1 11 2 17 5 13 3 -3 4
-12 1 -19z m82 -555 c28 -57 50 -103 48 -103 -12 0 -71 99 -87 146 -34 97 -28
91 39 -43z"/>
<path d="M12530 9140 c-81 -81 -138 -336 -127 -565 19 -377 77 -523 371 -930
165 -229 228 -393 229 -595 1 -161 -38 -292 -140 -462 -25 -43 -26 -48 -13
-73 60 -112 197 35 246 263 46 217 40 428 -16 591 l-29 86 35 44 c48 62 53 89
23 114 -19 15 -34 18 -71 14 l-47 -6 -51 81 -51 80 49 52 c27 29 57 67 67 86
52 101 81 255 51 279 -39 32 -189 -26 -279 -109 l-55 -50 -16 40 c-24 62 -20
89 32 196 83 169 112 282 112 433 0 181 -71 318 -208 405 -70 44 -89 49 -112
26z m146 -136 c26 -26 59 -73 77 -112 31 -65 32 -71 31 -197 -1 -155 -20 -224
-115 -417 -32 -67 -59 -134 -59 -150 0 -32 75 -164 99 -173 8 -3 43 22 86 64
64 62 160 121 198 121 14 0 3 -76 -22 -141 -24 -63 -83 -136 -136 -169 -19
-12 -35 -28 -35 -35 0 -7 18 -35 40 -61 23 -27 55 -78 73 -114 33 -69 45 -82
64 -75 6 2 29 7 50 11 l38 7 -48 -41 c-27 -23 -50 -42 -51 -42 -7 0 -290 413
-335 489 -58 96 -106 217 -134 335 -18 79 -21 121 -21 316 0 240 9 301 63 422
l22 47 35 -21 c19 -11 55 -40 80 -64z m372 -1739 c0 -11 -6 3 -14 30 -7 28
-13 55 -13 60 2 17 27 -69 27 -90z m9 -47 c-3 -8 -6 -5 -6 6 -1 11 2 17 5 13
3 -3 4 -12 1 -19z m-45 -511 c-18 -49 -76 -147 -87 -147 -3 0 19 47 47 105 29
57 54 103 56 101 1 -2 -6 -29 -16 -59z"/>
<path d="M7900 8260 c-12 -16 -34 -58 -50 -93 -98 -217 -86 -439 36 -654 22
-37 40 -71 42 -75 2 -4 -12 -1 -31 7 -91 38 -207 28 -291 -26 -56 -35 -60 -63
-18 -130 53 -83 156 -146 256 -156 49 -5 88 6 157 44 6 4 2 -30 -22 -170 l-11
-67 -54 49 c-67 62 -141 91 -229 91 -96 0 -111 -25 -82 -138 26 -98 91 -164
196 -200 l54 -18 -27 -22 c-15 -11 -52 -26 -81 -33 -47 -10 -60 -10 -100 6
-62 23 -111 74 -147 152 l-30 64 21 84 c30 122 29 226 -5 293 -29 59 -83 102
-126 102 -35 0 -53 -32 -69 -125 -32 -183 32 -434 143 -569 74 -91 219 -166
318 -166 63 0 138 30 190 77 195 176 265 577 210 1213 -19 217 -62 343 -151
444 -47 54 -70 57 -99 16z m113 -153 c65 -132 87 -309 87 -691 0 -163 -5 -271
-15 -342 -34 -229 -121 -406 -228 -468 -58 -33 -96 -39 -153 -25 l-49 13 74
12 c90 15 152 52 203 119 53 69 48 81 -30 77 -77 -4 -132 11 -173 45 -38 32
-68 95 -69 141 0 29 3 32 28 32 69 0 136 -31 197 -92 115 -113 112 -116 160
149 24 132 25 144 10 172 -19 37 -36 39 -79 6 -44 -33 -98 -55 -139 -55 -53 0
-134 46 -178 103 l-40 50 28 18 c71 47 157 45 282 -6 129 -53 166 -17 82 81
-171 199 -210 490 -96 714 25 50 27 51 45 35 10 -9 34 -49 53 -88z m-587 -855
c34 -49 37 -102 13 -226 -11 -61 -24 -129 -28 -151 l-7 -40 -29 90 c-26 78
-30 105 -30 200 0 61 4 127 8 148 8 37 9 38 30 24 12 -8 32 -28 43 -45z"/>
<path d="M12101 8243 c-50 -57 -103 -164 -126 -253 -21 -85 -39 -489 -32 -745
7 -244 29 -351 109 -512 35 -72 114 -165 159 -188 88 -46 216 -39 322 18 112
59 219 212 262 372 24 94 30 247 11 334 -18 86 -28 101 -69 101 -40 0 -120
-79 -136 -135 -18 -64 -13 -179 11 -270 l22 -83 -35 -57 c-50 -84 -104 -142
-145 -155 -50 -17 -120 -5 -168 27 l-40 26 54 19 c70 23 121 60 155 108 30 44
55 118 55 166 0 50 -21 64 -95 64 -92 0 -167 -31 -231 -95 l-52 -52 -17 114
c-10 62 -16 116 -13 118 2 2 31 -4 63 -14 128 -40 270 17 347 138 53 84 30
124 -94 162 -71 23 -115 24 -186 5 -29 -7 -52 -12 -52 -10 0 2 14 26 30 53 17
27 45 87 62 133 27 71 32 100 36 203 6 171 -17 272 -90 395 -44 73 -63 75
-117 13z m80 -75 c45 -88 61 -151 66 -263 4 -84 2 -126 -11 -175 -23 -91 -74
-195 -130 -263 -60 -74 -75 -105 -55 -118 23 -14 43 -11 131 22 106 39 184 42
251 10 l47 -23 -17 -30 c-43 -73 -141 -128 -229 -128 -33 0 -53 8 -95 40 -60
45 -69 47 -92 22 -16 -17 -15 -29 3 -163 26 -186 28 -193 51 -224 26 -31 38
-26 116 54 46 47 70 63 112 75 30 9 67 16 83 16 25 0 28 -3 28 -32 0 -18 -9
-51 -19 -73 -37 -81 -106 -118 -210 -113 -61 3 -66 1 -69 -18 -4 -30 55 -103
110 -137 28 -18 74 -33 119 -41 67 -12 71 -14 44 -22 -127 -36 -238 34 -316
200 -45 97 -66 174 -85 315 -25 194 -14 686 21 854 14 71 98 257 116 257 5 0
18 -19 30 -42z m573 -1023 c1 -100 -3 -133 -23 -195 -26 -83 -23 -85 -61 40
-40 128 -27 234 36 297 l27 27 10 -25 c6 -13 11 -78 11 -144z"/>
<path d="M9925 6399 c-154 -29 -313 -112 -395 -207 -22 -26 -57 -80 -78 -119
-29 -58 -35 -76 -26 -90 17 -28 102 -54 159 -49 40 4 165 37 230 62 9 4 14
-27 18 -103 7 -146 31 -209 107 -285 90 -90 133 -90 221 1 82 84 104 144 103
289 0 76 3 111 10 108 160 -70 160 -70 246 -70 89 -1 144 17 157 51 12 31 -58
144 -142 228 -92 92 -181 143 -309 175 -85 21 -212 25 -301 9z m342 -82 c95
-33 156 -69 224 -134 59 -56 127 -167 109 -178 -5 -3 -31 -8 -57 -11 -61 -8
-135 18 -239 81 -42 25 -89 49 -105 52 -25 5 -29 2 -29 -16 0 -12 9 -50 21
-84 30 -89 24 -211 -14 -289 -32 -65 -99 -138 -126 -138 -10 0 -42 25 -70 56
-68 74 -96 161 -88 273 3 42 12 93 21 113 22 51 21 88 -2 88 -10 0 -51 -21
-90 -46 -94 -60 -170 -86 -255 -86 -37 -1 -70 2 -73 5 -20 19 102 176 180 232
120 85 234 117 406 111 90 -3 131 -9 187 -29z"/>
<path d="M12005 4073 c-78 -28 -111 -57 -146 -129 -30 -60 -32 -74 -37 -187
-7 -201 34 -372 112 -464 85 -101 277 -101 362 0 77 91 119 264 112 457 -8
176 -46 258 -145 307 -73 35 -185 42 -258 16z m187 -69 c46 -41 61 -100 66
-250 7 -232 -25 -400 -89 -457 -25 -23 -38 -28 -62 -23 -62 12 -98 76 -122
212 -17 101 -20 330 -4 403 12 59 44 110 79 129 33 17 105 9 132 -14z"/>
<path d="M7602 4045 c18 -32 23 -60 29 -179 15 -283 8 -558 -16 -618 -7 -17 2
-18 104 -18 l112 0 -22 30 c-13 16 -26 53 -30 82 -11 78 -11 366 1 388 7 14
27 20 82 25 171 17 268 87 268 193 0 59 -14 80 -68 105 -42 19 -69 22 -265 25
l-217 4 22 -37z m327 -36 c37 -13 51 -35 51 -81 -1 -61 -58 -108 -131 -108
-63 0 -74 16 -74 102 0 57 3 72 19 84 24 17 91 18 135 3z"/>
<path d="M8155 4063 c19 -46 24 -118 25 -364 0 -296 7 -342 62 -405 48 -55
100 -76 182 -77 117 0 177 35 217 126 21 49 23 72 31 356 7 268 10 309 27 343
l18 38 -88 0 c-49 0 -89 -2 -89 -5 0 -3 7 -17 16 -30 37 -57 45 -554 10 -671
-25 -82 -80 -117 -150 -94 -74 24 -96 111 -95 380 0 181 12 375 24 403 7 16
-2 17 -95 17 -93 0 -102 -1 -95 -17z"/>
<path d="M8762 4074 c43 -87 41 -73 42 -439 1 -256 -2 -357 -11 -377 l-13 -28
101 0 100 0 -18 33 c-15 27 -18 66 -21 243 -4 186 -2 213 13 227 19 20 78 23
93 5 5 -7 15 -53 21 -103 15 -112 51 -261 83 -340 l24 -60 108 -3 108 -3 -42
48 c-61 69 -124 182 -154 276 -30 94 -49 210 -34 216 20 7 92 67 110 92 30 40
39 97 23 136 -11 25 -27 40 -62 55 -43 20 -69 22 -262 26 -118 2 -212 0 -209
-4z m347 -72 c63 -31 61 -124 -3 -163 -43 -26 -119 -26 -146 1 -26 26 -29 140
-4 164 21 22 109 21 153 -2z"/>
<path d="M9404 4053 c31 -138 32 -725 1 -805 -7 -16 2 -18 89 -18 l96 0 -12
28 c-19 43 -23 668 -5 755 l14 67 -95 0 -94 0 6 -27z"/>
<path d="M9662 4067 c-25 -30 -40 -160 -25 -215 5 -21 9 -16 34 35 31 65 85
127 119 136 14 4 28 -1 41 -14 19 -19 20 -33 17 -369 l-3 -349 -29 -30 -30
-31 139 0 c125 0 137 1 119 15 -51 35 -54 60 -54 392 0 182 4 323 11 346 9 33
13 37 44 37 27 0 41 -8 74 -46 22 -25 49 -69 60 -98 22 -58 29 -50 33 39 l3
60 46 -90 c95 -185 99 -202 99 -394 0 -175 -5 -206 -40 -241 l-20 -20 132 0
131 0 -20 23 c-40 43 -43 61 -43 242 0 163 2 182 26 253 14 42 50 125 81 185
48 94 57 107 66 91 18 -31 32 -516 20 -642 -6 -59 -14 -117 -18 -129 -7 -23
-7 -23 106 -23 l112 0 -21 23 c-31 33 -42 108 -42 296 0 119 4 172 13 183 8
10 42 19 99 26 162 20 248 89 248 198 0 51 -16 73 -68 97 -43 20 -67 22 -314
25 l-268 4 0 -44 c0 -46 -46 -191 -75 -235 l-18 -27 -23 45 c-36 72 -64 165
-64 214 l0 45 -344 0 c-268 0 -346 -3 -354 -13z m1327 -58 c36 -13 51 -35 51
-76 -1 -65 -57 -113 -132 -113 -40 0 -50 4 -64 25 -23 35 -16 142 11 161 23
17 90 18 134 3z"/>
<path d="M11200 4077 c0 -3 10 -23 23 -44 22 -37 22 -43 22 -388 0 -192 -4
-365 -8 -382 l-9 -33 96 0 95 0 -16 38 c-12 28 -17 87 -21 234 -4 173 -3 200
12 223 12 18 25 25 50 25 18 0 39 -6 45 -13 6 -8 16 -49 22 -93 20 -147 59
-300 99 -386 13 -28 14 -28 117 -28 l103 0 -51 63 c-92 113 -179 326 -179 437
0 33 5 40 45 66 64 40 100 95 100 155 0 56 -25 89 -83 109 -37 12 -462 28
-462 17z m345 -71 c42 -18 60 -52 51 -99 -10 -53 -46 -80 -114 -85 -79 -5 -94
8 -100 87 -6 86 11 111 79 111 27 0 65 -7 84 -14z"/>
</g>
</svg>
